{"title":"5.K.1 2010 DVDRip Xvid BigPerm LKRG","uid":5966791,"size":968767792,"categoryP":"video","categoryS":"movies","magnet":"?xt=urn:btih:39e91d7b6900ec9faed065d2829d73e5a862b4f5&amp;dn=5.K.1+2010+DVDRip+Xvid+BigPerm+LKRG&amp;tr=udp%3A%2F%2Ftracker.openbittorrent.com%3A80&amp;tr=udp%3A%2F%2Fopen.demonii.com%3A1337&amp;tr=udp%3A%2F%2Ftracker.coppersurfer.tk%3A6969&amp;tr=udp%3A%2F%2Fexodus.desync.com%3A6969","seeders":1,"leechers":0,"uploader":"neon","files":-1,"time":1290130454,"description":"Two best friends have to choose between life in the streets and loyalty when they are indicted with the help of an\ninformant, which causes everyone to be a suspect to the boss.A powerful criminal empire starts to crumble when an informant\ninfiltrates the gang and the obsessed leader launches a campaign to smoke the rat out at any cost. Tiger (Forty Da Great) and\nRemo (Melvin Jackson Jr.) are the founders of the Self-Made Bosses, a gang that deals in cash, drugs, and killing. But the more\npowerful the SMBs grow, the more Remo begins to feel like he should get out and start a family while he still can. Unfortunately for Remo,\ngetting out will be the hard part, because the seeds of his destruction have already been sewn. The film also featuresClifton Powell, Yukmouth, and Christina Usher.\n\nCategory Dramas DVDs, Rap/Hip Hop Movies, Action/Adventure\nStarring Clifton Powell, A.J. Johnson, Forty Da Great, Melvin Jackson, Quest Mcody\nCo-Star Angelo Ashmon, Big Herk, Marwvon, MS Nia, Brandy &quot;Focus&quot; Tahnor, Christina Usher\nComposer Steve King\nDirector Dionciel Armstrong\nDirector of Photography James Maxwell\nScreenwriter Dionciel Armstrong\n\n\nGeneral\nComplete name : 5K1 2010 DVDRip Xvid BigPerm LKRG\\5k1_LKRG.avi\nFormat : AVI\nFormat/Info : Audio Video Interleave\nFile size : 924 MiB\nDuration : 1h 48mn\nOverall bit rate : 1 194 Kbps\n\nVideo\nID : 0\nFormat : MPEG-4 Visual\nFormat profile : Advanced Simple@L5\nFormat settings, BVOP : Yes\nFormat settings, QPel : No\nFormat settings, GMC : No warppoints\nFormat settings, Matrix : Default (H.263)\nCodec ID : XVID\nCodec ID/Hint : XviD\nDuration : 1h 48mn\nBit rate : 799 Kbps\nWidth : 704 pixels\nHeight : 396 pixels\nDisplay aspect ratio : 16:9\nFrame rate : 23.976 fps\nResolution : 8 bits\nColorimetry : 4:2:0\nScan type : Progressive\nBits/(Pixel*Frame) : 0.120\nStream size : 618 MiB (67%)\nWriting library : XviD 1.2.1 (UTC 2008-12-04)\n\nAudio\nID : 1\nFormat : AC-3\nFormat/Info : Audio Coding 3\nCodec ID : 2000\nDuration : 1h 48mn\nBit rate mode : Constant\nBit rate : 384 Kbps\nChannel(s) : 6 channels\nChannel positions : Front: L C R, Side: L R, LFE\nSampling rate : 48.0 KHz\nResolution : 16 bits\nStream size : 297 MiB (32%)\nAlignment : Aligned on interleaves\nInterleave, duration : 32 ms (0.77 video frame)\nLanguage : English\n &lt;a href=&quot;\nhttp://triumphantpictures.com/5k1movie/&quot; rel=&quot;nofollow&quot; target=&quot;_NEW&quot;&gt;\nhttp://triumphantpictures.com/5k1movie/&lt;/a&gt; \n\n &lt;a href=&quot;\nhttp://www.youtube.com/watch?v=2rHw4VAxyN4&amp;feature=player_embedded&quot; rel=&quot;nofollow&quot; target=&quot;_NEW&quot;&gt;\nhttp://www.youtube.com/watch?v=2rHw4VAxyN4&amp;feature=player_embedded&lt;/a&gt;","torrent":{"xt":"urn:btih:39e91d7b6900ec9faed065d2829d73e5a862b4f5","amp;dn":"5.K.1+2010+DVDRip+Xvid+BigPerm+LKRG","amp;tr":["udp%3A%2F%2Ftracker.openbittorrent.com%3A80","udp%3A%2F%2Fopen.demonii.com%3A1337","udp%3A%2F%2Ftracker.coppersurfer.tk%3A6969","udp%3A%2F%2Fexodus.desync.com%3A6969"],"infoHash":"39e91d7b6900ec9faed065d2829d73e5a862b4f5","infoHashBuffer":{"type":"Buffer","data":[57,233,29,123,105,0,236,159,174,208,101,210,130,157,115,229,168,98,180,245]},"announce":[],"urlList":[]}}